<mxfile host="app.diagrams.net" modified="2024-07-20T13:25:45.094Z" agent="Mozilla/5.0 (Windows NT 10.0; Win64; x64) AppleWebKit/537.36 (KHTML, like Gecko) Chrome/126.0.0.0 Safari/537.36 OPR/112.0.0.0" version="24.7.2" etag="mZY1g1XwZnSKhFogtxL0" type="github">
  <diagram name="Page-1" id="6YyQVU3NXkQPQBJZSBj5">
    <mxGraphModel>
      <root>
        <mxCell id="0" />
        <mxCell id="1" parent="0" />
      </root>
    </mxGraphModel>
  </diagram>
</mxfile>
